<svg xmlns="http://www.w3.org/2000/svg" width="126" height="53" viewBox="0 0 126 53" fill="none"><g clip-path="url(#clip0_1_5)"><path d="M71.6754 23.7176C69.8633 23.772 68.0636 23.4057 66.4208 22.6483C65.0364 21.9808 63.8907 20.9126 63.1362 19.5859C62.3381 18.1083 61.9018 16.4665 61.8622 14.7922C61.8401 13.8902 61.829 12.9263 61.829 11.8825C61.829 10.8386 61.829 9.86024 61.8622 8.91822C61.9026 7.24776 62.3417 5.61031 63.1436 4.13906C63.9092 2.8061 65.0642 1.7324 66.4577 1.05842C68.0893 0.307777 69.8763 -0.0547157 71.6754 2.32789e-05C73.0491 -0.0182144 74.4167 0.18196 75.7259 0.592873C76.8442 0.943155 77.8868 1.49568 78.8006 2.2223C79.6199 2.8855 80.2897 3.7106 80.767 4.64462C81.2372 5.57632 81.4889 6.60066 81.5034 7.6416C81.5173 7.73236 81.5081 7.82511 81.4766 7.91146C81.4451 7.99782 81.3923 8.07507 81.323 8.13624C81.1831 8.26753 80.9967 8.33936 80.8038 8.33628H77.637C77.4218 8.34519 77.21 8.28101 77.0368 8.15443C76.8566 7.99547 76.738 7.77938 76.7017 7.54339C76.3482 6.08855 75.7345 5.10047 74.8606 4.57915C73.8788 4.02286 72.7587 3.74944 71.6276 3.78989C70.135 3.78989 68.9444 4.20089 68.0558 5.02288C67.1671 5.84486 66.6982 7.20151 66.6491 9.0928C66.5829 10.892 66.5829 12.736 66.6491 14.6249C66.7154 16.5137 67.1929 17.8704 68.0815 18.6948C68.9726 19.5168 70.1632 19.929 71.6533 19.9314C72.7925 19.9696 73.9194 19.6897 74.9048 19.124C75.7812 18.5857 76.3863 17.6024 76.7202 16.1743C76.726 16.0607 76.7553 15.9495 76.8061 15.8475C76.8569 15.7454 76.9283 15.6547 77.0158 15.5808C77.1034 15.507 77.2053 15.4515 77.3152 15.4178C77.4252 15.3842 77.541 15.373 77.6554 15.385H80.8222C81.0146 15.381 81.201 15.4515 81.3414 15.5814C81.4104 15.6428 81.463 15.7201 81.4945 15.8064C81.526 15.8927 81.5354 15.9853 81.5218 16.0761C81.508 17.1171 81.2563 18.1416 80.7854 19.073C80.3036 20.0094 79.6273 20.8348 78.8006 21.4954C77.8899 22.2225 76.8496 22.7751 75.7333 23.1248C74.4217 23.5365 73.0515 23.7367 71.6754 23.7176Z" fill="#06004F"></path><path d="M93.666 23.7176C92.1182 23.7673 90.5807 23.4519 89.181 22.7974C88.0129 22.2255 87.0475 21.3176 86.4119 20.1933C85.7539 18.9844 85.3825 17.6438 85.3256 16.2725C85.3035 15.8797 85.2925 15.3959 85.2925 14.8176C85.2925 14.2393 85.2925 13.7629 85.3256 13.3628C85.3736 11.9832 85.7522 10.6345 86.4303 9.42742C87.0899 8.31461 88.0637 7.41594 89.2325 6.84143C90.624 6.23237 92.1292 5.91772 93.6512 5.91772C95.1733 5.91772 96.6784 6.23237 98.07 6.84143C99.251 7.42026 100.233 8.32979 100.894 9.45651C101.574 10.663 101.952 12.012 101.999 13.3919C102.021 13.7871 102.032 14.2721 102.032 14.8467C102.032 15.4177 102.032 15.9015 101.999 16.3016C101.945 17.6729 101.575 19.0139 100.916 20.2224C100.28 21.3459 99.3146 22.2535 98.1473 22.8265C96.7462 23.4704 95.2101 23.7758 93.666 23.7176ZM93.666 20.4442C94.175 20.4758 94.6847 20.3941 95.1576 20.2053C95.6305 20.0164 96.0544 19.7252 96.3982 19.3531C97.0463 18.6257 97.3998 17.5345 97.4661 16.1088C97.4882 15.7815 97.4992 15.3523 97.4992 14.8249C97.4992 14.2975 97.4992 13.8683 97.4661 13.541C97.3998 12.1116 97.0463 11.0314 96.3982 10.293C95.668 9.58642 94.6864 9.19065 93.6641 9.19065C92.6418 9.19065 91.6603 9.58642 90.93 10.293C90.2856 11.0205 89.9285 12.1116 89.8622 13.541C89.8401 13.8683 89.829 14.2975 89.829 14.8249C89.829 15.3523 89.829 15.7815 89.8622 16.1088C89.9285 17.5394 90.2844 18.6208 90.93 19.3531C91.2732 19.7279 91.6972 20.0219 92.1707 20.2133C92.6442 20.4046 93.1552 20.4885 93.666 20.4588V20.4442Z" fill="#06004F"></path><path d="M107.522 23.3903C107.417 23.3903 107.313 23.3698 107.216 23.3299C107.119 23.29 107.03 23.2315 106.956 23.1578C106.882 23.0842 106.823 22.9967 106.783 22.9006C106.743 22.8044 106.723 22.7014 106.723 22.5974V1.13844C106.719 1.02926 106.738 0.920422 106.778 0.818519C106.818 0.716616 106.878 0.623765 106.955 0.545589C107.03 0.474216 107.119 0.418454 107.217 0.381597C107.314 0.34474 107.418 0.327536 107.522 0.330999H122.2C122.31 0.327309 122.421 0.345703 122.524 0.385077C122.627 0.424452 122.721 0.483995 122.8 0.560137C122.877 0.638314 122.938 0.731164 122.978 0.833067C123.018 0.93497 123.036 1.04381 123.032 1.15299V3.33525C123.034 3.43927 123.014 3.54256 122.974 3.63885C122.934 3.73514 122.875 3.82241 122.8 3.89537C122.721 3.97151 122.627 4.03105 122.524 4.07043C122.421 4.1098 122.31 4.1282 122.2 4.12451H111.205V9.94389H121.441C121.662 9.93536 121.877 10.0124 122.042 10.1585C122.12 10.2329 122.182 10.323 122.222 10.4227C122.263 10.5224 122.282 10.6294 122.277 10.7368V12.7772C122.282 12.8846 122.263 12.9916 122.222 13.0913C122.182 13.191 122.12 13.281 122.042 13.3555C121.877 13.5016 121.662 13.5786 121.441 13.5701H111.205V19.6004H122.443C122.554 19.5958 122.664 19.6139 122.768 19.6538C122.871 19.6937 122.965 19.7544 123.043 19.8321C123.122 19.9098 123.183 20.0027 123.222 20.105C123.262 20.2072 123.28 20.3166 123.275 20.426V22.6083C123.277 22.7124 123.258 22.8158 123.218 22.9122C123.178 23.0085 123.119 23.0957 123.043 23.1684C122.965 23.2461 122.871 23.3069 122.768 23.347C122.664 23.387 122.554 23.4055 122.443 23.4012L107.522 23.3903Z" fill="#06004F"></path><path d="M63.7365 52.669C63.6322 52.6756 63.5277 52.6602 63.4299 52.6238C63.3322 52.5874 63.2434 52.5309 63.1694 52.4581C63.0344 52.3083 62.9632 52.1129 62.9705 51.9125V30.4026C62.9596 30.1918 63.0307 29.9849 63.1694 29.8243C63.243 29.7508 63.3317 29.6936 63.4295 29.6566C63.5273 29.6196 63.6319 29.6036 63.7365 29.6097H71.3072C73.5976 29.6097 75.4387 29.9504 76.8306 30.6318C78.1773 31.2559 79.2637 32.3213 79.9053 33.6469C80.5986 35.1905 80.9417 36.8651 80.9106 38.5534C80.9327 39.5427 80.9437 40.4095 80.9437 41.1539C80.9437 41.9032 80.9437 42.7579 80.9106 43.7254C80.9303 45.4467 80.588 47.1534 79.9053 48.7373C79.2931 50.046 78.2293 51.0968 76.9043 51.7015C75.5394 52.3489 73.7326 52.6727 71.484 52.6727L63.7365 52.669ZM66.2367 49.8721H71.3072C72.5657 49.9241 73.8209 49.7109 74.9895 49.2465C75.8838 48.8467 76.5925 48.1285 76.9742 47.2352C77.4322 46.0708 77.6537 44.8287 77.626 43.5799C77.6702 42.9216 77.6923 42.3433 77.6923 41.8486V40.3719C77.6923 39.8773 77.6702 39.3099 77.626 38.6734C77.5818 36.5457 77.07 34.9672 76.0905 33.9452C75.111 32.9231 73.4687 32.4103 71.1562 32.4103H66.2367V49.8721Z" fill="#06004F"></path><path d="M94.1852 53C92.5171 53.0493 90.8575 52.7468 89.3172 52.1125C88.1297 51.615 87.0904 50.8263 86.2977 49.8211C85.6344 48.9718 85.249 47.9428 85.1931 46.8714C85.194 46.7815 85.2138 46.6927 85.2512 46.6107C85.2886 46.5287 85.3427 46.4553 85.4103 46.395C85.4769 46.3265 85.557 46.2721 85.6457 46.2352C85.7343 46.1983 85.8296 46.1796 85.9258 46.1804H87.627C87.7356 46.172 87.8447 46.1854 87.9479 46.2198C88.051 46.2541 88.1461 46.3088 88.2272 46.3804C88.3568 46.5061 88.4485 46.6647 88.4924 46.8387C88.6527 47.4149 88.9379 47.9498 89.3282 48.4063C89.8198 48.9725 90.4426 49.4129 91.1436 49.6902C92.1156 50.0629 93.1542 50.2362 94.1962 50.1994C96.1085 50.1994 97.5152 49.8648 98.4161 49.1956C98.8463 48.8913 99.1945 48.4876 99.4301 48.0196C99.6656 47.5517 99.7815 47.0338 99.7675 46.5114C99.7802 46.1677 99.7215 45.8251 99.5948 45.5048C99.4681 45.1845 99.2762 44.8933 99.031 44.6492C98.3974 44.0848 97.6546 43.653 96.8474 43.3798C95.8655 43.0088 94.5976 42.6027 93.0437 42.1614C91.646 41.791 90.2892 41.2841 88.9932 40.6483C88.0282 40.1897 87.2055 39.4838 86.6107 38.6043C86.0547 37.668 85.7825 36.5937 85.8264 35.5091C85.8088 34.3761 86.1471 33.2655 86.7948 32.3303C87.5001 31.3458 88.4692 30.575 89.5934 30.1044C90.9897 29.521 92.4966 29.2407 94.0121 29.2824C95.2434 29.2592 96.4698 29.4424 97.6391 29.8243C98.5849 30.1413 99.46 30.6353 100.217 31.2791C100.859 31.823 101.391 32.482 101.785 33.2214C102.128 33.8447 102.327 34.5353 102.367 35.2436C102.364 35.4069 102.306 35.5644 102.201 35.691C102.136 35.7652 102.053 35.8231 101.96 35.8597C101.867 35.8964 101.767 35.9109 101.668 35.9019H99.9C99.7308 35.8982 99.5651 35.8532 99.4177 35.771C99.2364 35.6576 99.1049 35.481 99.0494 35.2763C98.9709 34.8121 98.7939 34.3696 98.5299 33.9778C98.2658 33.586 97.9209 33.2538 97.5176 33.0031C96.4854 32.3497 95.2736 32.0283 94.0489 32.0829C92.821 32.0293 91.6022 32.3139 90.5287 32.9049C90.0883 33.172 89.7299 33.5525 89.4918 34.0055C89.2537 34.4585 89.145 34.967 89.1773 35.4764C89.153 36.1519 89.3796 36.8129 89.8143 37.3349C90.3666 37.9197 91.052 38.366 91.8138 38.637C92.9798 39.0977 94.1711 39.4936 95.3819 39.8227C96.8812 40.2065 98.3437 40.7189 99.7528 41.3539C100.758 41.79 101.627 42.4846 102.268 43.3653C102.847 44.2878 103.132 45.3613 103.085 46.4459C103.122 47.7136 102.734 48.9577 101.981 49.9848C101.189 51.0056 100.12 51.7827 98.8985 52.2253C97.3909 52.7748 95.7917 53.0377 94.1852 53Z" fill="#06004F"></path><path d="M116.658 53C114.611 53 112.916 52.6266 111.573 51.8798C110.258 51.1666 109.194 50.0758 108.52 48.7519C107.801 47.2919 107.414 45.6942 107.386 44.0709C107.364 43.1738 107.353 42.2039 107.353 41.1612C107.353 40.1186 107.364 39.1305 107.386 38.197C107.415 36.5749 107.802 34.9785 108.52 33.5197C109.194 32.1957 110.258 31.1049 111.573 30.3917C112.916 29.6473 114.611 29.2739 116.658 29.2715C118.035 29.2434 119.406 29.4552 120.709 29.8971C121.773 30.2621 122.753 30.8334 123.592 31.5774C124.329 32.24 124.925 33.0412 125.345 33.9343C125.738 34.7787 125.965 35.6899 126.011 36.6185C126.024 36.709 126.014 36.8012 125.982 36.8869C125.949 36.9726 125.896 37.049 125.827 37.1095C125.688 37.2399 125.503 37.3116 125.311 37.3095H123.47C123.285 37.3138 123.103 37.2562 122.955 37.1459C122.785 36.9887 122.674 36.78 122.638 36.553C122.26 34.8387 121.554 33.6639 120.521 33.0286C119.355 32.3559 118.019 32.0241 116.669 32.0721C114.87 32.0721 113.446 32.5716 112.398 33.5706C111.349 34.5696 110.795 36.1675 110.733 38.3643C110.662 40.1634 110.662 42.0075 110.733 43.8963C110.8 46.0932 111.354 47.6911 112.398 48.69C113.441 49.689 114.865 50.1885 116.669 50.1885C118.018 50.236 119.354 49.9056 120.521 49.2356C121.557 48.5955 122.262 47.4195 122.638 45.7076C122.674 45.4806 122.785 45.2719 122.955 45.1148C123.103 45.0045 123.285 44.9468 123.47 44.9511H125.311C125.5 44.9479 125.683 45.0126 125.827 45.133C125.897 45.1898 125.95 45.2637 125.983 45.3472C126.015 45.4307 126.025 45.521 126.011 45.6094C125.963 46.5436 125.737 47.4604 125.345 48.3118C124.928 49.2109 124.332 50.0176 123.592 50.6832C122.753 51.4272 121.773 51.9985 120.709 52.3635C119.407 52.8091 118.036 53.0246 116.658 53Z" fill="#06004F"></path><path d="M6.62809 46.1186H0V52.6654H6.62809V46.1186Z" fill="#3D52D5"></path><path d="M46.3966 0.290985H39.7685V6.83779H46.3966V0.290985Z" fill="#3D52D5"></path><path d="M46.3966 13.3846H39.7685V19.9314H46.3966V13.3846Z" fill="#3D52D5"></path><path d="M6.62809 10.1112C6.62809 9.24303 6.97725 8.41043 7.59875 7.79654C8.22026 7.18266 9.0632 6.83779 9.94214 6.83779H23.1983C24.0773 6.83779 24.9202 7.18266 25.5417 7.79654C26.1632 8.41043 26.5124 9.24303 26.5124 10.1112V39.5718H33.1405V10.1112C33.1405 7.50671 32.093 5.0089 30.2285 3.16726C28.364 1.32561 25.8351 0.290985 23.1983 0.290985H9.94214C7.30532 0.290985 4.7765 1.32561 2.91198 3.16726C1.04747 5.0089 0 7.50671 0 10.1112L0 39.5718H6.62809V10.1112Z" fill="#399E5A"></path><path d="M39.7685 42.8452C39.7685 43.7134 39.4194 44.546 38.7979 45.1598C38.1764 45.7737 37.3334 46.1186 36.4545 46.1186H23.1983C22.3194 46.1186 21.4764 45.7737 20.8549 45.1598C20.2334 44.546 19.8843 43.7134 19.8843 42.8452V13.3846H13.2562V42.8452C13.2562 45.4497 14.3037 47.9475 16.1682 49.7891C18.0327 51.6308 20.5615 52.6654 23.1983 52.6654H36.4545C39.0913 52.6654 41.6201 51.6308 43.4846 49.7891C45.3492 47.9475 46.3966 45.4497 46.3966 42.8452V26.4782H39.7685V42.8452Z" fill="#06004F"></path></g><defs><clipPath id="clip0_1_5"><rect width="126" height="53" fill="white"></rect></clipPath></defs></svg>